<svg xmlns="http://www.w3.org/2000/svg" xml:space="preserve" data-id="lg_uRU2VBG6BfKcyZGy2D" data-version="1" viewBox="719 -0.5 562 151"><g data-padding="20"><g transform="translate(10 2.674)scale(.96435)"><rect width="409.182" height="150.29" x="421.829" y="-400.395" fill="none" rx="0" ry="0" transform="translate(475.91 400.25)"/><path fill="#27ae60" d="M929.59 117.32q-13.7 0-20.95-8.28-7.24-8.28-7.24-23.93V30.82q0-14.68 7.18-22.28Q915.76.95 929.59.95t21.01 7.59q7.17 7.6 7.17 22.28v54.29q0 15.65-7.24 23.93t-20.94 8.28m.19-21.04q5.2 0 5.2-10.07V30.43q0-8.44-5.07-8.44-5.71 0-5.71 8.63v55.72q0 5.33 1.3 7.63 1.3 2.31 4.28 2.31m59.67 20h-22.47V1.98h30.2q9.48 0 15.04 4.23 5.55 4.22 7.95 12.01t2.4 18.57q0 10.39-2.01 18.09t-7.17 11.92q-5.17 4.22-14.65 4.22h-9.29Zm0-93.45V50.5h1.3q6.37 0 7.8-3.58 1.42-3.57 1.42-10.52 0-6.49-1.39-10.03-1.4-3.54-6.59-3.54Zm87.55 93.45h-47.22V1.98h45.72v22.09h-22.47v22.27h21.56v21.5h-21.56v26.17H1077Zm29.87 0h-22.34V1.98h23.51l10.52 54.75V1.98h22.08v114.3h-22.34l-11.43-57.15Zm74.89 0h-30.98V1.98h30.98q12.46 0 18.15 6.08 5.68 6.07 5.68 20.03v5q0 8.05-2.89 13.06-2.89 5-8.8 6.55 7.73 1.95 10.36 9.13 2.63 7.17 2.63 17.5 0 11.11-2.08 19.42t-7.53 12.92q-5.46 4.61-15.52 4.61m-8.64-96.63v25.39h4.67q3.19 0 4.1-2.47.91-2.46.91-5.91V25.17q0-5.52-4.88-5.52Zm2.27 76.5q8.9 0 8.9-8.44V73.42q0-4.87-1.46-7.7-1.46-2.82-5.49-2.82h-4.22v33.12q1.43.13 2.27.13m60.06 20.13h-22.08V1.98h22.08Zm39.75 0h-30.66V1.98h31.44q12.33 0 18.57 6.86 6.23 6.85 6.23 20.03v53.51q0 16.24-5.68 25.07t-19.9 8.83m-7.67-94.29v74.1h3.97q6.29 0 6.29-6.11V31.01q0-5.71-1.52-7.37-1.53-1.65-6.2-1.65ZM790.746 51.212l24.96-24.96a6.38 6.38 0 0 0-9.024-9.024l-24.96 25.152a6.336 6.336 0 0 0 0 9.024c2.304 2.304 6.528 2.496 9.024-.192M813.21 82.91a6.374 6.374 0 0 0 9.024 0l25.152-25.151a6.38 6.38 0 0 0-9.024-9.024l-24.96 25.152c-2.88 2.496-2.688 6.528-.192 9.024m-19.95-28.608 17.089 17.088c0-.192.192-.192.192-.192l24.96-24.96.192-.192-17.088-17.088-.192.192-24.96 24.96s-.192 0-.192.192m1.152 6.527-45.504 43.009a8.256 8.256 0 0 0-.192 11.904c3.456 3.456 8.832 3.264 11.904-.192l43.008-45.696Zm13.247 44.737v3.456h-2.687a5.57 5.57 0 0 0-5.568 5.568v4.992h65.856v-4.992a5.57 5.57 0 0 0-5.568-5.568h-2.688v-3.456a5.57 5.57 0 0 0-5.568-5.568h-38.208a5.57 5.57 0 0 0-5.568 5.568m59.519 18.048H797.1c-1.151 0-1.92.768-1.92 1.92s.769 1.92 1.92 1.92h70.08c1.153 0 1.92-.768 1.92-1.92s-.767-1.92-1.92-1.92"/></g><path fill="transparent" stroke="transparent" d="M719.5 0h561v150h-561z"/></g></svg>